<svg width="45" height="41" viewBox="0 0 45 41" fill="none" xmlns="http://www.w3.org/2000/svg">
<path d="M41.7845 0C43.4005 0 44.7518 1.21909 44.97 2.82273L44.9932 3.04364L45 3.26182V30.3681C45 32.0045 43.8027 33.3777 42.2182 33.6L42 33.6231L41.7832 33.6301L29.1355 33.6287V35.0237C29.1355 36.229 29.9182 37.264 30.9968 37.6009L31.2027 37.6554L31.4032 37.6922L31.5791 37.7113L31.7714 37.7182H34.6841C35.5568 37.7182 36.2632 38.434 36.2632 39.3136C36.2637 39.6782 36.1394 40.0319 35.9109 40.316C35.6824 40.6001 35.3635 40.7975 35.0073 40.875L34.8464 40.9022L34.6827 40.9104H10.3173C9.44455 40.9104 8.73818 40.1945 8.73818 39.315C8.73818 38.5568 9.26182 37.9132 9.99409 37.7537L10.155 37.7263L10.3186 37.7182H13.2273C14.5418 37.7182 15.6464 36.7228 15.8332 35.4272L15.855 35.2227L15.8618 35.0251V33.6273L3.21545 33.6287C2.51083 33.6245 1.82691 33.3899 1.26803 32.9608C0.709142 32.5317 0.305966 31.9314 0.12 31.2519L0.0654545 31.0309L0.0286364 30.8127L0.00545455 30.585L0 30.3681V3.26182C0 1.62546 1.19727 0.25364 2.78182 0.03L3 0.0081799L3.21682 0H41.7845ZM26.3755 33.6354H18.6232V35.0345L18.6136 35.3577C18.5624 36.2266 18.3064 37.0709 17.8664 37.8218L17.6823 38.1136H27.3164L27.1473 37.8463C26.76 37.1923 26.5121 36.4653 26.4191 35.7109L26.3877 35.3836L26.3768 35.0237V33.6354H26.3755ZM42.24 25.1263H2.75864V30.3396L2.76545 30.4363C2.77655 30.514 2.80662 30.5878 2.853 30.6511C2.89938 30.7143 2.96064 30.7652 3.03136 30.799L3.11182 30.8237L3.21682 30.8345H41.7545L41.85 30.829C41.9271 30.8167 42 30.7854 42.0619 30.7378C42.1238 30.6901 42.1728 30.6278 42.2045 30.5564L42.2291 30.4745L42.2386 30.3654V25.1249L42.24 25.1263ZM22.5 26.5159C22.8266 26.5155 23.1399 26.6449 23.3711 26.8756C23.6023 27.1062 23.7324 27.4193 23.7327 27.7459C23.7331 28.0724 23.6037 28.3859 23.373 28.6171C23.1424 28.8482 22.8293 28.9782 22.5027 28.9786C22.176 28.9789 21.8624 28.8496 21.6311 28.6187C21.3998 28.3879 21.2697 28.0747 21.2693 27.7479C21.269 27.4212 21.3984 27.1076 21.6292 26.8763C21.86 26.645 22.1732 26.5149 22.5 26.5145V26.5159ZM3.24273 2.79273L3.14727 2.79818C3.07128 2.80956 2.99927 2.83954 2.93765 2.88545C2.87604 2.93137 2.82672 2.99179 2.79409 3.06136L2.76955 3.14182L2.76 3.24546V22.3281H42.24V3.27273L42.2359 3.17727C42.2212 3.08612 42.1792 3.00158 42.1154 2.93485C42.0516 2.86813 41.969 2.82237 41.8786 2.80364L41.7832 2.79409L3.24273 2.79273ZM22.3405 7.09364C22.6397 6.79544 23.045 6.62801 23.4675 6.62801C23.89 6.62801 24.2953 6.79544 24.5945 7.09364C25.1168 7.61455 25.2055 8.41635 24.8264 9.04635L24.7214 9.20045L24.5945 9.34365L17.3427 16.5763C17.1948 16.7245 17.0191 16.842 16.8257 16.9222C16.6323 17.0024 16.425 17.0436 16.2157 17.0436C16.0063 17.0436 15.799 17.0024 15.6056 16.9222C15.4122 16.842 15.2366 16.7245 15.0886 16.5763C14.8364 16.3242 14.6763 15.9945 14.6343 15.6402C14.5922 15.286 14.6706 14.9279 14.8568 14.6237L14.9618 14.471L15.0886 14.3278L22.3405 7.09364ZM25.3377 12.3382C25.5999 12.0774 25.9546 11.9312 26.3243 11.9312C26.6941 11.9312 27.0488 12.0774 27.3109 12.3382C27.7609 12.7881 27.8441 13.4755 27.5264 14.0278L27.4295 14.175L27.3109 14.3101L24.9791 16.635C24.7388 16.8715 24.421 17.0128 24.0845 17.0331C23.748 17.0534 23.4156 16.9511 23.1487 16.7452C22.8817 16.5393 22.6984 16.2437 22.6325 15.9131C22.5667 15.5826 22.6228 15.2393 22.7905 14.9469L22.8873 14.7996L23.0059 14.6631L25.3377 12.3382Z" fill="#EC2121"/>
</svg>
