<svg width="130" height="130" viewBox="0 0 130 130" fill="none" xmlns="http://www.w3.org/2000/svg">
<g filter="url(#filter0_d)">
<circle cx="65" cy="64" r="50" fill="white"/>
</g>
<g filter="url(#filter1_d)">
<path d="M93.7251 45.6946C93.0236 43.0609 90.9557 40.9845 88.3327 40.2801C83.5747 39 64.5 39 64.5 39C64.5 39 45.4253 39 40.6673 40.2801C38.0443 40.9845 35.9764 43.0609 35.2749 45.6946C34 50.4721 34 63.5 34 63.5C34 63.5 34 76.5279 35.2749 81.3054C35.9764 83.9391 38.0443 86.0155 40.6673 86.7199C45.4253 88 64.5 88 64.5 88C64.5 88 83.5747 88 88.3327 86.7199C90.9587 86.0155 93.0236 83.9391 93.7251 81.3054C95 76.5279 95 63.5 95 63.5C95 63.5 95 50.4721 93.7251 45.6946ZM58.4 74.1085V52.8915L76.7 63.5L58.4 74.1085Z" fill="black"/>
</g>
<defs>
<filter id="filter0_d" x="0" y="0" width="130" height="130" filterUnits="userSpaceOnUse" color-interpolation-filters="sRGB">
<feFlood flood-opacity="0" result="BackgroundImageFix"/>
<feColorMatrix in="SourceAlpha" type="matrix" values="0 0 0 0 0 0 0 0 0 0 0 0 0 0 0 0 0 0 127 0"/>
<feOffset dy="1"/>
<feGaussianBlur stdDeviation="7.5"/>
<feColorMatrix type="matrix" values="0 0 0 0 0 0 0 0 0 0 0 0 0 0 0 0 0 0 0.25 0"/>
<feBlend mode="normal" in2="BackgroundImageFix" result="effect1_dropShadow"/>
<feBlend mode="normal" in="SourceGraphic" in2="effect1_dropShadow" result="shape"/>
</filter>
<filter id="filter1_d" x="30" y="39" width="69" height="57" filterUnits="userSpaceOnUse" color-interpolation-filters="sRGB">
<feFlood flood-opacity="0" result="BackgroundImageFix"/>
<feColorMatrix in="SourceAlpha" type="matrix" values="0 0 0 0 0 0 0 0 0 0 0 0 0 0 0 0 0 0 127 0"/>
<feOffset dy="4"/>
<feGaussianBlur stdDeviation="2"/>
<feColorMatrix type="matrix" values="0 0 0 0 0 0 0 0 0 0 0 0 0 0 0 0 0 0 0.25 0"/>
<feBlend mode="normal" in2="BackgroundImageFix" result="effect1_dropShadow"/>
<feBlend mode="normal" in="SourceGraphic" in2="effect1_dropShadow" result="shape"/>
</filter>
</defs>
</svg>
